<?xml version="1.0" encoding="utf-8"?>
<!-- Generator: Adobe Illustrator 27.6.1, SVG Export Plug-In . SVG Version: 6.00 Build 0)  -->
<svg version="1.1" id="Layer_1" xmlns="http://www.w3.org/2000/svg" xmlns:xlink="http://www.w3.org/1999/xlink" x="0px" y="0px"
	 viewBox="0 0 302.6 286.5" style="enable-background:new 0 0 302.6 286.5;" xml:space="preserve">
<style type="text/css">
	.st0{fill:#72BE44;}
	.st1{fill:#FFFFFF;}
</style>
<g>
	<g>
		<rect x="278.7" y="2.7" class="st0" width="22.3" height="176.8"/>
	</g>
	<g>
		<path class="st1" d="M11.4,9.2c8.2-5.9,20-8.2,34-8.2C60.2,1,70,2.7,83.6,8.1l-5.9,16.2c-11.8-4.1-19.4-5.4-31-5.4
			c-7.9,0-14.5,0.8-18.2,2.4c-2.4,1.2-3.9,2.7-3.9,5.3c0,2.3,0.9,3.9,2.4,5.1c2.1,1.5,5.6,2.6,8.8,3l23,3.5
			c10.1,1.5,18.5,4.4,23.6,9.5c4.5,4.4,7.4,9.8,7.4,17.7c0,10.1-4.8,17.2-11.9,21.8c-9.1,5.7-22.1,7.9-35,7.9
			c-13.5,0-26.6-1.8-41.2-7l4.7-16.9c12.9,3.6,26.6,5.3,35.3,5.3c5.1,0,13.9-0.3,19.7-2.7c3.2-1.5,5.3-3.9,5.3-7.3
			c0-5.9-4.5-7.6-11.5-8.6l-23-3c-9.8-1.4-17.1-3.8-22.1-7.7c-5.1-4.1-8.3-10-8.3-18.3C1.8,19.9,5.5,13.4,11.4,9.2z"/>
	</g>
	<g>
		<path class="st1" d="M129.2,2.7L154,71.1l25-68.4h32.7v90.8h-22.2v-64h-1.1l-23.5,64h-23.4l-23.5-64h-0.9v64H96.2V2.7H129.2z"/>
	</g>
	<g>
		<g>
			<path class="st1" d="M166.4,99.2l40.4,90.8h-24.1l-5.6-13.3h-46.8l-5.7,13.3h-23.4l40.5-90.8H166.4z M137.8,159.1h31.8l-15-38.4
				h-1.8L137.8,159.1z"/>
		</g>
	</g>
	<g>
		<path class="st1" d="M158.4,195.7c12.1,0,21,3,27.8,9.7c5.6,5.3,9.2,12.9,9.2,22.5c0,6.8-2.7,14.1-7.1,19.5
			c-2.7,3.5-7.4,7-11.9,9.1l18.3,30h-24.5l-14.5-26h-20v26h-23.1v-90.8H158.4z M168.3,216.9c-2.7-2.7-6.7-3.9-11.2-3.9h-21.5v30.1
			h21.2c4.8,0,8.9-1.7,11.5-4.2c2.6-2.7,3.9-6.5,3.9-11.2C172.3,223.1,170.9,219.4,168.3,216.9z"/>
	</g>
	<g>
		<path class="st1" d="M211.7,195.7h89.3V213h-33.1v73.5h-23.1V213h-33V195.7z"/>
	</g>
</g>
</svg>
